# xmcd
#
# Track frame offsets:
#	150
#	24220
#	39088
#	57827
#	72914
#	86073
#	105192
#	121174
#	138347
#	152197
#	168587
#	184463
#	198608
#	220199
#	236390
#	255094
#	268331
#	279169
#	295350
#	309694
#
# Disc length: 4369 seconds
#
# Revision: 2
# Processed by: cddbd v1.5.2PL0 Copyright (c) Steve Scherf et al.
# Submitted via: audiograbber 1.83.01
#
DISCID=19110f14
DTITLE=DMC - Essential Hits 51
DYEAR=2009
DGENRE=Pop
TTITLE0=Taylor Swift - Teardrops On My Guitar (Cahill Remix Edit)
TTITLE1=Beyonce - Diva (Original)
TTITLE2=Keri Hilson Ft Kanye West and Ne-Yo - Knock You Down
TTITLE3=David Guetta and Kelly Rowland - When Love Takes Over
TTITLE4=Kid British - Our House (Is Dadless)(Dance Edit)
TTITLE5=Akon - We Don't Care
TTITLE6=Daniel Merriweather - Red (Moto Blanco Edit)
TTITLE7=Busta Rhymes - World Go Round (Explicit Lyrics)
TTITLE8=Agnes - Release Me
TTITLE9=Melanie Fiona - Give It To Me Right (Radio Edit)
TTITLE10=Just Jack - Doctor Doctor (Radio Edit)
TTITLE11=Dolly Rockers - Je Suis Une Dolly (Soul Seekerz Club Edit)
TTITLE12=Jamie Foxx Ft T-Pain - Blame It
TTITLE13=Jonas Brothers - Paranoid
TTITLE14=Kasabian - Fire
TTITLE15=The Blackout - Children Of The Night
TTITLE16=Datarock - Give It Up
TTITLE17=The Enemy - Sing When You're In Love
TTITLE18=The Virgins - Hey Hey Girl
TTITLE19=Carolina Liar - Show Me What I'm Looking For
EXTD=
EXTT0=
EXTT1=
EXTT2=
EXTT3=
EXTT4=
EXTT5=
EXTT6=
EXTT7=
EXTT8=
EXTT9=
EXTT10=
EXTT11=
EXTT12=
EXTT13=
EXTT14=
EXTT15=
EXTT16=
EXTT17=
EXTT18=
EXTT19=
PLAYORDER=
